<svg xmlns="http://www.w3.org/2000/svg" width="165.789" height="161.082" viewBox="0 0 165.789 161.082">
  <g id="Groupe_11" data-name="Groupe 11" transform="translate(-104.953 -168.426)">
    <path id="Tracé_11" data-name="Tracé 11" d="M10.476.41c5.52,0,9.109-2.854,9.109-7.417,0-3.486-2.034-5.537-7.178-6.665l-2.734-.6C6.306-15,4.99-16.338,4.99-18.286c0-2.512,2.375-4.016,5.452-4.016,2.666,0,4.7,1.094,5.554,3.589a1.528,1.528,0,0,0,1.538,1.2,1.323,1.323,0,0,0,1.4-1.384,2.986,2.986,0,0,0-.085-.769c-.889-3.333-4.2-5.4-8.323-5.4-5.11,0-8.7,2.854-8.7,6.921,0,3.5,2.136,5.742,7.075,6.819l2.734.6c3.418.752,4.785,2.119,4.785,4.187,0,2.427-2.427,4.187-5.776,4.187-3.11,0-5.537-1.2-6.289-3.743A1.445,1.445,0,0,0,2.871-7.314,1.406,1.406,0,0,0,1.453-5.725a3.83,3.83,0,0,0,.171,1.077C2.546-1.675,5.845.41,10.476.41ZM24.712.239A1.459,1.459,0,0,0,26.25-1.35v-9.331h9.724a1.343,1.343,0,0,0,1.453-1.367,1.343,1.343,0,0,0-1.453-1.367H26.25v-8.477H36.931a1.361,1.361,0,0,0,1.47-1.384,1.361,1.361,0,0,0-1.47-1.384H24.712a1.459,1.459,0,0,0-1.538,1.589V-1.35A1.459,1.459,0,0,0,24.712.239Zm25.549,0A1.352,1.352,0,0,0,51.7-1.248V-19h.12L59.131-1.47a1.852,1.852,0,0,0,1.846,1.3A1.856,1.856,0,0,0,62.822-1.5L70.137-19h.12V-1.248A1.352,1.352,0,0,0,71.692.239a1.352,1.352,0,0,0,1.436-1.487V-22.986A1.808,1.808,0,0,0,71.2-24.9a2.241,2.241,0,0,0-2.2,1.641L61.045-4.084h-.137L52.944-23.259A2.178,2.178,0,0,0,50.791-24.9a1.835,1.835,0,0,0-1.965,1.914V-1.248A1.352,1.352,0,0,0,50.261.239ZM84.9.308c3.247,0,5.742-1.367,6.887-3.777a2.42,2.42,0,0,0,.222-.872A1.233,1.233,0,0,0,90.7-5.64a1.264,1.264,0,0,0-1.111.6C88.2-3.025,86.9-2.273,84.783-2.273c-3.179,0-5.144-2.222-5.144-5.811H90.747A1.551,1.551,0,0,0,92.388-9.81c0-4.871-3.2-8.271-7.742-8.271-4.9,0-8.066,3.657-8.066,9.263C76.58-3.076,79.656.308,84.9.308ZM79.656-10.408c.188-3.059,2.17-5.093,4.939-5.093,2.751,0,4.648,2.017,4.717,5.093ZM96.865.308a1.473,1.473,0,0,0,1.487-1.589v-9.861a4.073,4.073,0,0,1,4.067-4.307,3.374,3.374,0,0,1,3.64,3.538v10.63A1.473,1.473,0,0,0,107.546.308a1.473,1.473,0,0,0,1.487-1.589V-11.3a3.932,3.932,0,0,1,4.016-4.153c2.341,0,3.691,1.436,3.691,3.862V-1.282A1.473,1.473,0,0,0,118.228.308a1.473,1.473,0,0,0,1.487-1.589V-12.271a5.441,5.441,0,0,0-5.793-5.811A5.948,5.948,0,0,0,108.35-14.7h-.068a4.974,4.974,0,0,0-4.99-3.384,5.313,5.313,0,0,0-5.042,3.145h-.068v-1.641a1.393,1.393,0,0,0-1.4-1.5,1.393,1.393,0,0,0-1.4,1.5v15.3A1.473,1.473,0,0,0,96.865.308Zm33.992,0c4.9,0,8.22-3.538,8.22-9.194,0-5.674-3.315-9.194-8.22-9.194-4.922,0-8.237,3.521-8.237,9.194C122.62-3.23,125.935.308,130.857.308Zm0-2.615c-3.145,0-5.212-2.393-5.212-6.58s2.068-6.58,5.212-6.58,5.2,2.393,5.2,6.58S134-2.307,130.857-2.307Zm12.7,2.615a1.474,1.474,0,0,0,1.487-1.589V-11.04c0-2.273,1.145-4.2,3.828-4.2a2.166,2.166,0,0,0,1.418-.376,1.234,1.234,0,0,0,.461-1.042,1.3,1.3,0,0,0-.376-.991,1.989,1.989,0,0,0-1.4-.427,4.388,4.388,0,0,0-4.033,3.213h-.068v-1.709a1.393,1.393,0,0,0-1.4-1.5,1.393,1.393,0,0,0-1.4,1.5v15.3A1.474,1.474,0,0,0,143.555.308Zm11.04,6.34c2.939,0,4.392-1.316,5.93-5.4l6.563-17.175a2.445,2.445,0,0,0,.154-.786,1.352,1.352,0,0,0-1.453-1.367,1.333,1.333,0,0,0-1.4,1.094L159.465-2.974h-.051l-4.9-14.014a1.373,1.373,0,0,0-1.418-1.094,1.371,1.371,0,0,0-1.487,1.367,2.445,2.445,0,0,0,.154.786L157.876.017l-.41,1.248c-.7,2.153-1.777,2.837-2.905,2.837-.461,0-.581-.017-1.008-.017a1.071,1.071,0,0,0-1.2,1.094C152.356,6.118,153.159,6.648,154.595,6.648Z" transform="translate(103.5 290)" fill="#fff"/>
    <g id="Groupe_4" data-name="Groupe 4" transform="translate(424.509 19.297)">
      <g id="Groupe_5" data-name="Groupe 5" transform="translate(-276.93 149.129)">
        <path id="Tracé_4" data-name="Tracé 4" d="M-426.133-668.091h6.289v5.625c0,7.734,3.984,11.64,11.8,11.64h37.226c7.773,0,11.8-3.906,11.8-11.64v-37.46c0-7.734-4.023-11.68-11.8-11.68h-6.328v-5.625c0-7.7-3.984-11.64-11.758-11.64h-37.226c-7.851,0-11.8,3.945-11.8,11.64v37.5C-437.93-672-433.984-668.091-426.133-668.091Zm.234-6.406c-3.594,0-5.586-1.914-5.586-5.664V-716.8c0-3.711,1.992-5.625,5.586-5.625h36.757c3.555,0,5.586,1.914,5.586,5.625v5.2h-24.492c-7.812,0-11.8,3.945-11.8,11.68V-674.5Zm18.086,17.265c-3.594,0-5.586-1.914-5.586-5.664v-36.6c0-3.75,1.992-5.664,5.586-5.664h36.757c3.555,0,5.586,1.914,5.586,5.664v36.6c0,3.75-2.031,5.664-5.586,5.664Z" transform="translate(437.93 728.871)" fill="#fff"/>
        <path id="Tracé_5" data-name="Tracé 5" d="M-114.2-363.923a2.629,2.629,0,0,0,2.823,2.8c1.749,0,2.4-1,3.023-2.474.575-2.1,1.4-2.973,3.823-4.822,3.2-2.374,5.322-4.5,5.322-8.37,0-5.572-4.572-8.995-11.144-8.995-3.548,0-6.271.924-8.1,2.474a6.664,6.664,0,0,0-2.474,4.722,2.346,2.346,0,0,0,2.449,2.5,2.841,2.841,0,0,0,2.424-1.5,5.552,5.552,0,0,1,5.247-2.973c2.748,0,4.922,1.624,4.922,4.073,0,2.2-1.349,3.4-3.773,5.3C-113.026-368.545-114.2-366.871-114.2-363.923Zm-.949,9.869a3.579,3.579,0,0,0,3.773,3.523,3.6,3.6,0,0,0,3.8-3.523,3.6,3.6,0,0,0-3.8-3.523A3.579,3.579,0,0,0-115.15-354.054Z" transform="translate(159.841 415.792)" fill="#fff"/>
      </g>
    </g>
    <path id="Tracé_12" data-name="Tracé 12" d="M0,0C.164.434.328.621.656.621,1.02.621,1.148.4,1.3-.023L5.355-10.957a.819.819,0,0,0,.071-.328.375.375,0,0,0-.41-.387c-.188,0-.317.106-.422.375L.691-.457H.633L-3.246-11.285c-.106-.27-.234-.387-.422-.387a.391.391,0,0,0-.422.387.845.845,0,0,0,.07.34ZM10.758.2a.412.412,0,1,0,.82,0v-11.66a.493.493,0,0,0-.5-.551,1.236,1.236,0,0,0-.656.246l-2.766,1.8c-.246.164-.3.316-.3.445a.311.311,0,0,0,.328.317.616.616,0,0,0,.351-.129l2.684-1.746h.047Zm4.57-.375a.861.861,0,0,0,.856.856.863.863,0,0,0,.867-.856.873.873,0,0,0-.867-.867.87.87,0,0,0-.856.867m4.09-5.179C19.418-1.488,21.293.8,23.883.8c2.613,0,4.476-2.285,4.476-6.152V-6.07c0-3.879-1.875-6.153-4.464-6.153S19.418-9.949,19.418-6.07Zm.844-.739c0-3.445,1.582-5.414,3.621-5.414s3.633,1.969,3.633,5.414v.762c0,3.434-1.582,5.4-3.633,5.4s-3.621-1.968-3.621-5.4ZM39.5,2.25a.327.327,0,0,0,.269.152.273.273,0,0,0,.282-.257.376.376,0,0,0-.071-.211,14.068,14.068,0,0,1-2.132-7.688,13.843,13.843,0,0,1,2.132-7.617.41.41,0,0,0,.071-.211.284.284,0,0,0-.282-.27.36.36,0,0,0-.269.153A12.656,12.656,0,0,0,37.02-5.766,12.81,12.81,0,0,0,39.5,2.25M45.5.2a.412.412,0,1,0,.82,0v-11.66a.493.493,0,0,0-.5-.551,1.236,1.236,0,0,0-.656.246L42.4-9.961c-.246.164-.3.316-.3.445a.311.311,0,0,0,.328.317.616.616,0,0,0,.351-.129l2.684-1.746H45.5ZM50.672,2.25a12.81,12.81,0,0,0,2.484-8.016A12.656,12.656,0,0,0,50.672-13.7a.36.36,0,0,0-.27-.153.287.287,0,0,0-.293.27.565.565,0,0,0,.071.211,13.725,13.725,0,0,1,2.144,7.617A14.051,14.051,0,0,1,50.18,1.934a.5.5,0,0,0-.071.211A.277.277,0,0,0,50.4,2.4a.328.328,0,0,0,.27-.152" transform="translate(163.09 327.106)" fill="#fff"/>
  </g>
</svg>
