<svg xmlns="http://www.w3.org/2000/svg" width="1024" height="1012.848" viewBox="0 0 1024 1012.848">
  <g id="Groupe_9" data-name="Groupe 9" transform="translate(-61.58 -97.426)">
    <g id="Groupe_7" data-name="Groupe 7" transform="translate(61.58 97.426)">
      <g id="Groupe_5" data-name="Groupe 5" transform="translate(0 0)">
        <path id="Tracé_4" data-name="Tracé 4" d="M-284.836,59.913h81.616v73c0,100.373,51.707,151.066,153.094,151.066h483.1c100.879,0,153.093-50.694,153.093-151.066V-353.236c0-100.372-52.214-151.573-153.093-151.573H350.855v-73c0-99.864-51.707-151.064-152.587-151.064h-483.1c-101.893,0-153.093,51.2-153.093,151.064V-91.151C-437.929,9.22-386.729,59.913-284.836,59.913Zm3.042-83.136c-46.638,0-72.491-24.84-72.491-73.505v-475.5c0-48.158,25.853-73,72.491-73H195.227c46.131,0,72.492,24.84,72.492,73v67.421H-50.127c-101.386,0-153.094,51.2-153.094,151.573V-23.223ZM-47.085,200.84c-46.638,0-72.492-24.84-72.492-73.5v-475c0-48.665,25.854-73.505,72.492-73.505H429.936c46.131,0,72.491,24.841,72.491,73.505v475c0,48.665-26.36,73.5-72.491,73.5Z" transform="translate(437.929 728.871)"/>
      </g>
    </g>
    <path id="Tracé_6" data-name="Tracé 6" d="M143.729,290.479c24.4,0,39.288-11.723,46.575-33.9,6.337-22.812,14.575-34.218,57.981-59.249,46.575-26.931,68.437-59.249,68.437-105.824,0-76.992-63.051-127.052-159.053-127.052C85.748-35.547,32.836-8.3,11.608,31.623A76.448,76.448,0,0,0,1.786,69.643c-.317,28.515,18.693,46.892,48.476,46.892,22.179,0,40.238-10.456,49.427-31.05,9.822-23.129,26.931-34.852,52.278-34.852,28.515,0,49.11,18.06,49.11,43.724,0,27.248-11.089,40.872-54.179,66.219-34.535,19.644-53.229,42.773-53.229,77.308v1.9C93.669,269.885,113.313,290.479,143.729,290.479Zm1.584,145.745c32.951,0,59.882-25.03,59.882-57.031,0-31.684-26.931-56.714-59.882-56.714-33.268,0-59.882,25.03-59.882,56.714C85.431,411.194,112.045,436.225,145.313,436.225Z" transform="translate(532.449 516.777)"/>
  </g>
</svg>
